<svg xmlns="http://www.w3.org/2000/svg" width="512" height="512" viewBox="0 0 512 512" version="1.1">
	<path d="M 239 2.431 C 235.425 3.187, 230.025 4.783, 227 5.977 C 223.975 7.171, 183.586 30.021, 137.247 56.755 C 57.098 102.994, 41.153 112.958, 42.214 116.143 C 42.381 116.642, 53.076 123.313, 65.983 130.969 L 89.449 144.888 93.475 141.471 C 99.840 136.068, 224.483 64.086, 232.979 60.906 C 245.276 56.305, 258.495 55.950, 271 59.887 C 275.298 61.240, 299.692 74.696, 343 99.601 C 379.025 120.318, 410.113 138.537, 412.085 140.088 L 415.671 142.907 438.585 129.399 C 451.188 121.969, 461.950 115.429, 462.500 114.865 C 464.397 112.922, 453.795 105.272, 431 92.137 C 341.107 40.337, 289.767 10.916, 285.495 8.755 C 272.206 2.032, 253.147 -0.561, 239 2.431 M 458.181 160.860 L 434.862 174.703 434.643 255.602 C 434.403 343.847, 434.674 339.678, 428.297 353 C 425.593 358.648, 422.829 362.352, 417.103 368 C 409.886 375.119, 406.249 377.364, 345.500 412.198 C 310.300 432.382, 279.363 449.840, 276.750 450.995 L 272 453.094 272 481.155 L 272 509.217 274.750 508.561 C 280.536 507.181, 293.075 500.415, 341 472.814 C 368.225 457.134, 403.325 436.954, 419 427.970 C 434.675 418.985, 450.088 409.900, 453.251 407.779 C 464.826 400.020, 474.306 388.245, 479.670 374.965 C 485.028 361.701, 484.964 363.112, 484.983 257.582 C 484.999 164.690, 484.545 146.977, 482.147 147.008 C 481.791 147.013, 471.007 153.246, 458.181 160.860 M 23.256 151.803 C 22.840 153.287, 22.500 200.850, 22.500 257.500 L 22.500 360.500 24.847 367.975 C 30.484 385.927, 40.414 399.259, 55.222 408.755 C 61.567 412.823, 214.597 501.222, 220.913 504.466 C 222.790 505.431, 226.727 507.046, 229.663 508.056 L 235 509.892 235 481.567 L 235 453.243 231.750 451.960 C 229.963 451.254, 199.025 433.762, 163 413.088 C 100.704 377.339, 97.129 375.133, 89.914 368 C 84.695 362.840, 81.329 358.457, 79.127 353.955 C 72.268 339.927, 72.608 344.758, 72.329 257.117 L 72.077 177.733 66.472 174.357 C 63.390 172.500, 52.575 166.059, 42.439 160.044 L 24.011 149.107 23.256 151.803 M 343 238 L 343 288 354 288 L 365 288 365 269.968 C 365 249.787, 365.800 246.189, 370.872 243.566 C 374.408 241.738, 377.958 241.568, 381.257 243.071 C 386.034 245.248, 386.463 247.186, 386.834 268.250 L 387.181 288 397.590 288 L 408 288 407.978 264.250 C 407.954 238.065, 407.464 235.513, 401.362 229.789 C 393.491 222.406, 377.582 222.038, 369.591 229.055 C 367.746 230.675, 365.958 232, 365.618 232 C 365.278 232, 365 222.100, 365 210 L 365 188 354 188 L 343 188 343 238 M 105 242.500 L 105 288 125.250 287.988 C 138.964 287.980, 147.114 287.545, 150.500 286.639 C 174.873 280.118, 189.677 255.375, 183.467 231.535 C 179.288 215.492, 166.550 202.629, 150.650 198.395 C 147.102 197.450, 139.200 197.020, 125.250 197.012 L 105 197 105 242.500 M 129 242.500 L 129 269 133.818 269 C 149.902 269, 160 258.779, 160 242.500 C 160 226.221, 149.902 216, 133.818 216 L 129 216 129 242.500 M 217.882 225.319 C 209.110 228.602, 202.367 234.777, 198.630 242.949 C 195.644 249.479, 195.661 264.557, 198.662 271.122 C 204.896 284.762, 219.940 292.373, 233.998 289 C 237.001 288.280, 240.657 286.484, 242.608 284.771 L 246 281.793 246 284.896 L 246 288 257 288 L 268 288 268 257 L 268 226 257 226 L 246 226 246 229.174 L 246 232.349 243.750 230.291 C 237.811 224.860, 225.454 222.485, 217.882 225.319 M 302.500 224.605 C 290.055 227.759, 283.691 235.089, 283.675 246.288 C 283.662 255.422, 288.993 260.558, 300.923 262.905 C 309.883 264.668, 313.033 267.824, 309.429 271.429 C 306.664 274.193, 298.136 273.087, 288 268.649 C 286.884 268.160, 285.508 269.927, 282.629 275.541 C 280.499 279.693, 278.934 283.267, 279.149 283.482 C 279.365 283.698, 281.641 284.774, 284.207 285.874 C 305.269 294.903, 328.457 288.083, 331.942 271.835 C 334.496 259.928, 328.355 251.713, 314.800 248.901 C 305.507 246.973, 302.599 243.482, 306.982 239.517 C 309.255 237.459, 315.959 237.893, 320.833 240.413 L 323.631 241.860 327.288 234.470 L 330.945 227.079 327.222 225.989 C 323.107 224.784, 305.650 223.807, 302.500 224.605 M 226.256 244.645 C 221.893 246.796, 219 251.722, 219 257 C 219 274.488, 244.520 275.677, 246.642 258.288 C 247.937 247.683, 236.126 239.779, 226.256 244.645 M 182 333.500 L 182 348 188.566 348 C 196.159 348, 198.398 347.065, 200.490 343.020 C 204.737 334.807, 198.927 324.765, 190.862 326.378 C 188.097 326.931, 188 326.816, 188 322.975 C 188 319.225, 187.830 319, 185 319 L 182 319 182 333.500 M 304 333.500 L 304 348 306.960 348 L 309.919 348 310.210 339.855 C 310.442 333.335, 310.855 331.490, 312.278 330.605 C 315.010 328.907, 315.967 331.397, 315.985 340.250 L 316 348 319 348 L 322 348 322 340.450 C 322 329.473, 319.817 326, 312.918 326 C 310.250 326, 310 325.700, 310 322.500 C 310 319.278, 309.762 319, 307 319 L 304 319 304 333.500 M 327.313 320.250 C 326.870 320.938, 326.506 327.462, 326.504 334.748 L 326.500 347.997 329.303 347.998 L 332.106 348 331.962 336.750 C 331.883 330.563, 332.135 324.707, 332.521 323.737 C 333.831 320.452, 329.186 317.342, 327.313 320.250 M 288.783 323.750 C 288.519 325.813, 288.578 331.478, 288.913 336.339 C 289.580 346.006, 290.803 348, 296.069 348 C 299.768 348, 301.140 346.079, 300.039 342.440 C 299.177 339.591, 299.128 339.571, 298.447 341.791 C 297.145 346.040, 295.505 343.450, 295.204 336.670 C 294.932 330.521, 295.068 330, 296.954 330 C 298.333 330, 299 329.348, 299 328 C 299 326.667, 298.333 326, 297 326 C 295.444 326, 295 325.333, 295 323 C 295 320.364, 294.652 320, 292.132 320 C 289.569 320, 289.212 320.400, 288.783 323.750 M 270.303 323.197 C 265.525 325.506, 263.508 335.494, 266.415 342.452 C 269.093 348.859, 276.981 350.188, 281.371 344.971 C 290.105 334.592, 281.550 317.763, 270.303 323.197 M 203 326.374 C 203 326.579, 204.827 330.864, 207.061 335.895 C 211.188 345.194, 211.397 347.602, 208.299 350.160 C 207.025 351.211, 206.584 351.231, 206.254 350.250 C 205.519 348.065, 203 348.878, 203 351.300 C 203 355.614, 207.562 357.504, 211.327 354.750 C 212.896 353.602, 224 329.170, 224 326.865 C 224 326.313, 222.991 326.005, 221.759 326.180 C 220.052 326.424, 218.919 327.988, 217.009 332.739 C 215.629 336.170, 214.199 338.983, 213.832 338.989 C 213.464 338.995, 212.190 336.075, 211 332.500 C 208.996 326.479, 208.622 326, 205.918 326 C 204.313 326, 203 326.168, 203 326.374 M 241 341.075 L 241 356 244 356 C 246.868 356, 247 355.811, 247 351.701 L 247 347.402 250.507 347.811 C 257.791 348.661, 262.593 341.259, 260.117 332.996 C 258.502 327.605, 255.916 326.177, 247.750 326.162 L 241 326.150 241 341.075 M 272.557 328.223 C 270.782 330.757, 270.466 339.134, 272.035 342.066 C 274.672 346.993, 279 342.239, 279 334.416 C 279 326.959, 275.678 323.766, 272.557 328.223 M 189.035 331.934 C 187.442 334.912, 187.769 341.564, 189.584 343.070 C 193.208 346.078, 197.319 338.412, 195.118 332.750 C 193.856 329.502, 190.573 329.061, 189.035 331.934 M 248.238 331.162 C 246.653 332.747, 246.625 341.225, 248.200 342.800 C 251.901 346.501, 256.033 340.752, 254.406 334.166 C 253.437 330.247, 250.557 328.843, 248.238 331.162" stroke="none" fill="black" fill-rule="evenodd"/>
</svg>