<?xml version="1.0" encoding="utf-8"?>
<svg viewBox="0.175 0.119 43.044 47.276" width="43.044" height="47.276" xmlns="http://www.w3.org/2000/svg">
  <path fill="#00D2EA" d="M 38.528 17.311 L 38.528 30.435 C 38.528 32.366 37.487 34.163 35.814 35.125 L 24.371 41.704 C 24.065 41.88 23.747 42.018 23.42 42.126 L 23.42 47.378 C 23.975 47.233 24.508 47.025 25.002 46.739 L 39.863 38.194 C 41.936 36.998 43.215 34.788 43.219 32.395 L 43.219 15.351 C 43.219 14.771 43.132 14.199 42.978 13.637 L 38.429 16.336 C 38.49 16.654 38.528 16.979 38.528 17.31 M 3.523 9.549 C 2.94 9.886 2.413 10.322 1.954 10.827 L 6.47 13.507 C 6.799 13.169 7.156 12.861 7.574 12.62 L 18.972 6.045 C 20.643 5.084 22.698 5.083 24.372 6.041 L 35.815 12.622 C 36.158 12.819 36.464 13.061 36.748 13.325 L 41.242 10.659 C 40.825 10.232 40.377 9.847 39.864 9.551 L 25.003 1.006 C 22.933 -0.179 20.391 -0.177 18.324 1.011 L 3.523 9.549 Z M 18.969 41.701 L 7.574 35.127 C 5.9 34.158 4.868 32.374 4.866 30.441 L 4.866 17.307 C 4.866 17.069 4.896 16.834 4.929 16.601 L 0.36 13.89 C 0.243 14.366 0.181 14.853 0.175 15.343 L 0.175 32.402 C 0.178 34.792 1.454 37 3.523 38.196 L 18.324 46.736 C 18.838 47.033 19.392 47.248 19.973 47.395 L 19.973 42.135 C 19.624 42.026 19.288 41.881 18.969 41.702" style=""/>
  <g>
    <g transform="matrix(1, 0, 0, 1, -0.133767, -1.070138)">
      <path fill="#00D2EA" d="M 11.997 17.544 C 11.997 18.941 13.063 19.973 14.32 19.973 C 15.578 19.973 16.643 18.941 16.643 17.526 C 16.643 16.112 15.578 15.081 14.32 15.081 C 13.063 15.081 11.997 16.112 11.997 17.526 L 11.997 17.544 Z M 9.098 17.509 C 9.098 15.151 10.792 12.374 14.32 12.374 C 17.849 12.374 19.543 15.151 19.543 17.526 C 19.543 19.902 17.849 22.679 14.32 22.679 C 10.793 22.679 9.098 19.902 9.098 17.526 L 9.098 17.509 Z" style=""/>
      <path d="M 26.954 15.48 C 26.311 16 25.989 16.664 25.989 17.471 C 25.989 18.324 26.285 19.039 26.877 19.619 C 27.468 20.198 28.246 20.487 29.211 20.487 C 30.123 20.487 30.863 20.212 31.43 19.66 C 31.995 19.11 32.277 18.422 32.277 17.602 C 32.277 16.793 31.995 16.104 31.429 15.536 C 30.863 14.966 30.123 14.681 29.21 14.681 C 28.349 14.694 27.597 14.959 26.954 15.48 Z M 23.578 9.473 L 26.144 9.473 L 26.144 13.735 L 26.182 13.735 C 26.465 13.361 26.841 13.071 27.311 12.867 C 27.776 12.663 28.266 12.525 28.767 12.455 C 28.896 12.443 29.018 12.435 29.134 12.429 C 29.249 12.422 29.365 12.42 29.481 12.42 C 31.05 12.42 32.336 12.941 33.34 13.98 C 34.342 15.022 34.844 16.225 34.844 17.592 C 34.844 17.791 34.831 18 34.805 18.215 C 34.78 18.433 34.734 18.647 34.67 18.856 C 34.565 19.282 34.409 19.694 34.207 20.083 C 34.011 20.466 33.765 20.819 33.474 21.135 C 32.99 21.668 32.389 22.079 31.719 22.337 C 31.032 22.61 30.298 22.75 29.558 22.75 C 28.825 22.75 28.146 22.623 27.523 22.371 C 26.899 22.12 26.381 21.708 25.97 21.135 L 25.931 21.118 L 25.931 22.433 L 23.578 22.433 L 23.578 9.473 Z" style=""/>
    </g>
    <path d="M 28.198 30.68 C 28.198 36.14 25.585 38.87 20.358 38.87 L 15.988 38.87 L 15.988 22.65 L 20.078 22.65 C 22.531 22.65 24.498 23.223 25.978 24.37 C 27.458 25.517 28.198 27.62 28.198 30.68 Z M 24.248 30.68 C 24.248 28.667 23.935 27.29 23.308 26.55 C 22.688 25.81 21.798 25.44 20.638 25.44 L 19.818 25.44 L 19.818 36.09 L 20.638 36.09 C 21.811 36.09 22.705 35.687 23.318 34.88 C 23.938 34.08 24.248 32.68 24.248 30.68 Z" transform="matrix(1, 0, 0, 1, 0, 0)" style="fill: rgb(255, 138, 4); white-space: pre;"/>
  </g>
</svg>