<?xml version="1.0" encoding="utf-8"?>
<svg viewBox="0.175 0.119 227.153 48.756" width="227.153" height="48.756" xmlns="http://www.w3.org/2000/svg">
  <path fill="#00D2EA" d="M 38.528 17.311 L 38.528 30.435 C 38.528 32.366 37.487 34.163 35.814 35.125 L 24.371 41.704 C 24.065 41.88 23.747 42.018 23.42 42.126 L 23.42 47.378 C 23.975 47.233 24.508 47.025 25.002 46.739 L 39.863 38.194 C 41.936 36.998 43.215 34.788 43.219 32.395 L 43.219 15.351 C 43.219 14.771 43.132 14.199 42.978 13.637 L 38.429 16.336 C 38.49 16.654 38.528 16.979 38.528 17.31 M 3.523 9.549 C 2.94 9.886 2.413 10.322 1.954 10.827 L 6.47 13.507 C 6.799 13.169 7.156 12.861 7.574 12.62 L 18.972 6.045 C 20.643 5.084 22.698 5.083 24.372 6.041 L 35.815 12.622 C 36.158 12.819 36.464 13.061 36.748 13.325 L 41.242 10.659 C 40.825 10.232 40.377 9.847 39.864 9.551 L 25.003 1.006 C 22.933 -0.179 20.391 -0.177 18.324 1.011 L 3.523 9.549 Z M 18.969 41.701 L 7.574 35.127 C 5.9 34.158 4.868 32.374 4.866 30.441 L 4.866 17.307 C 4.866 17.069 4.896 16.834 4.929 16.601 L 0.36 13.89 C 0.243 14.366 0.181 14.853 0.175 15.343 L 0.175 32.402 C 0.178 34.792 1.454 37 3.523 38.196 L 18.324 46.736 C 18.838 47.033 19.392 47.248 19.973 47.395 L 19.973 42.135 C 19.624 42.026 19.288 41.881 18.969 41.702" style=""/>
  <g fill="#2A506F" transform="matrix(1, 0, 0, 1, 0, -9)">
    <path d="M132.219 20.286c-.995.804-1.492 1.83-1.492 3.077 0 1.32.458 2.426 1.372 3.321.915.895 2.118 1.342 3.609 1.342 1.411 0 2.554-.426 3.43-1.279.874-.85 1.311-1.912 1.311-3.181 0-1.25-.437-2.315-1.312-3.194-.875-.88-2.018-1.32-3.43-1.32-1.332.019-2.495.43-3.488 1.234zM127 11h3.966v6.588h.06c.437-.578 1.018-1.025 1.745-1.342a8.611 8.611 0 0 1 2.251-.637c.199-.018.387-.031.567-.04.178-.01.358-.014.536-.014 2.426 0 4.414.805 5.965 2.413 1.55 1.609 2.326 3.47 2.326 5.584 0 .308-.02.629-.06.963a5.71 5.71 0 0 1-.209.99 8.547 8.547 0 0 1-.716 1.898 7.322 7.322 0 0 1-1.132 1.626 7.133 7.133 0 0 1-2.714 1.857 9 9 0 0 1-3.34.638c-1.134 0-2.182-.196-3.147-.584-.965-.388-1.764-1.025-2.4-1.911l-.06-.027v2.033H127V11zM159.655 23.499c0-1.247-.443-2.3-1.328-3.16-.885-.858-2.033-1.278-3.444-1.26-1.452-.018-2.64.416-3.564 1.302-.924.886-1.386 1.988-1.386 3.307 0 1.23.481 2.264 1.446 3.104.964.84 2.112 1.253 3.444 1.234 1.432.019 2.595-.407 3.49-1.274.894-.868 1.342-1.943 1.342-3.226v-.027zm3.757 7.536h-3.638v-2.033h-.06c-.497.65-1.154 1.184-1.969 1.6a8.656 8.656 0 0 1-2.534.84l-.551.054c-.19.018-.374.027-.552.027-1.273 0-2.427-.222-3.46-.664a7.556 7.556 0 0 1-2.624-1.83 7.805 7.805 0 0 1-1.52-2.494 8.312 8.312 0 0 1-.538-2.983c0-1.048.164-2.014.492-2.9.329-.885.87-1.717 1.625-2.494.836-.886 1.764-1.541 2.789-1.966 1.024-.424 2.141-.637 3.355-.637 1.133 0 2.177.222 3.13.664a6.44 6.44 0 0 1 2.417 1.939v-2.142h3.638v15.019zM166.364 31.035h3.966V11h-3.966zM186.046 21.926c-.319-.886-.895-1.582-1.73-2.087a5.247 5.247 0 0 0-2.773-.76h-.24a5.695 5.695 0 0 0-2.683.847c-.835.51-1.391 1.176-1.67 2h9.096zm-9.036 3.2c.298.885.85 1.59 1.655 2.113a4.842 4.842 0 0 0 2.699.787c.755 0 1.465-.118 2.131-.352.666-.236 1.189-.552 1.567-.95l4.384-.027c-.498 1.356-1.506 2.5-3.027 3.43-1.521.93-3.157 1.396-4.906 1.396-2.406 0-4.458-.763-6.158-2.29-1.7-1.527-2.55-3.385-2.55-5.572 0-2.223.845-4.13 2.535-5.72 1.69-1.59 3.767-2.386 6.232-2.386 2.366 0 4.37.789 6.01 2.366 1.64 1.576 2.46 3.41 2.46 5.5 0 .235-.015.465-.045.69-.03.225-.065.446-.105.662-.02.073-.035.136-.044.19a.888.888 0 0 0-.015.162H177.01zM192.607 16.016h3.668V17.4h.06c.456-.56 1.058-.994 1.804-1.302a7.395 7.395 0 0 1 2.34-.542h.597c.079 0 .16.01.239.027a6.924 6.924 0 0 1 2.31.57c.747.325 1.388.75 1.924 1.273l.224.204c.07.063.134.14.194.23.635.814 1.014 1.682 1.133 2.603.12.922.18 1.862.18 2.82v7.753h-3.967v-7.781c0-.253-.01-.505-.03-.759a7.26 7.26 0 0 0-.21-1.152c-.099-.37-.248-.709-.446-1.017a2.753 2.753 0 0 0-1.06-.868 3.827 3.827 0 0 0-1.385-.379h-.373c-.07 0-.144.01-.224.027a3.904 3.904 0 0 0-1.342.421 2.63 2.63 0 0 0-1.014.88c-.198.29-.348.629-.447 1.018-.1.388-.16.781-.18 1.179-.02.235-.029.47-.029.705v7.726h-3.966V16.016zM223.472 23.499c0-1.247-.443-2.3-1.327-3.16-.885-.858-2.034-1.278-3.444-1.26-1.453-.018-2.64.416-3.564 1.302-.924.886-1.388 1.988-1.388 3.307 0 1.23.483 2.264 1.447 3.104.964.84 2.113 1.253 3.445 1.234 1.431.019 2.594-.407 3.489-1.274.894-.868 1.342-1.943 1.342-3.226v-.027zm3.758 7.536h-3.64v-2.033h-.058c-.498.65-1.154 1.184-1.969 1.6a8.666 8.666 0 0 1-2.535.84l-.551.054c-.19.018-.373.027-.552.027-1.272 0-2.426-.222-3.46-.664a7.548 7.548 0 0 1-2.623-1.83 7.796 7.796 0 0 1-1.521-2.494 8.312 8.312 0 0 1-.538-2.983c0-1.048.165-2.014.492-2.9.33-.885.87-1.717 1.626-2.494.835-.886 1.764-1.541 2.788-1.966 1.024-.424 2.142-.637 3.355-.637 1.133 0 2.177.222 3.131.664a6.44 6.44 0 0 1 2.416 1.939v-2.142h3.639v15.019z"/>
  </g>
  <path fill="#00D2EA" d="M 57.267 14.067 C 57.267 16.253 58.934 17.867 60.902 17.867 C 62.87 17.867 64.537 16.253 64.537 14.039 C 64.537 11.826 62.87 10.213 60.902 10.213 C 58.934 10.213 57.267 11.826 57.267 14.039 L 57.267 14.067 Z M 52.73 14.012 C 52.73 10.322 55.381 5.977 60.902 5.977 C 66.423 5.977 69.074 10.323 69.074 14.039 C 69.074 17.757 66.424 22.102 60.902 22.102 C 55.382 22.102 52.73 17.757 52.73 14.039 L 52.73 14.012 Z M 83.586 14.04 C 83.586 12.264 82.274 10.186 79.786 10.186 C 78.693 10.186 77.736 10.623 77.054 11.334 C 76.397 12.018 75.987 13.001 75.987 14.094 C 75.987 15.161 76.397 16.117 77.081 16.8 C 77.798 17.518 78.772 17.92 79.787 17.92 C 82.165 17.92 83.586 15.98 83.586 14.067 L 83.586 14.04 Z M 71.642 6.47 L 75.906 6.47 L 75.906 8.136 C 76.89 6.989 78.393 5.95 80.716 5.95 C 86.1 5.95 88.123 10.678 88.123 14.203 C 88.123 18.577 85.062 22.157 80.743 22.157 C 78.01 22.157 76.725 20.845 76.179 20.271 L 76.179 26.695 L 71.642 26.695 L 71.642 6.469 L 71.642 6.47 Z M 101.24 12.181 C 101.13 11.471 100.202 9.776 97.851 9.776 C 95.501 9.776 94.571 11.471 94.462 12.181 L 101.24 12.181 Z M 94.407 15.625 C 94.598 17.237 96.129 18.303 97.906 18.303 C 99.354 18.303 100.12 17.675 100.666 16.883 L 105.313 16.883 C 104.575 18.577 103.509 19.889 102.225 20.763 C 100.964 21.66 99.453 22.139 97.905 22.13 C 93.561 22.13 89.87 18.604 89.87 14.094 C 89.87 9.858 93.205 5.95 97.824 5.95 C 100.147 5.95 102.142 6.852 103.564 8.355 C 105.477 10.405 106.051 12.837 105.695 15.625 L 94.407 15.625 Z M 108.346 6.469 L 112.581 6.469 L 112.581 8.082 C 113.101 7.344 114.057 5.95 116.763 5.95 C 121.874 5.95 122.393 10.104 122.393 12.154 L 122.393 21.638 L 117.856 21.638 L 117.856 13.356 C 117.856 11.689 117.501 10.213 115.479 10.213 C 113.238 10.213 112.882 11.826 112.882 13.383 L 112.882 21.638 L 108.345 21.638 L 108.345 6.469 L 108.346 6.469 Z"/>
  <path d="M 65.011 35.844 C 65.011 40.744 62.668 43.194 57.981 43.194 L 54.051 43.194 L 54.051 28.644 L 57.731 28.644 C 59.924 28.644 61.688 29.157 63.021 30.184 C 64.348 31.211 65.011 33.097 65.011 35.844 Z M 61.471 35.844 C 61.471 34.037 61.191 32.801 60.631 32.134 C 60.071 31.474 59.271 31.144 58.231 31.144 L 57.501 31.144 L 57.501 40.694 L 58.231 40.694 C 59.284 40.694 60.088 40.334 60.641 39.614 C 61.194 38.894 61.471 37.637 61.471 35.844 ZM 76.413 39.984 C 76.413 40.391 76.47 40.691 76.583 40.884 C 76.69 41.077 76.877 41.224 77.143 41.324 L 76.453 43.514 C 75.78 43.441 75.22 43.287 74.773 43.054 C 74.327 42.827 73.977 42.487 73.723 42.034 C 73.303 42.527 72.77 42.904 72.123 43.164 C 71.483 43.424 70.8 43.554 70.073 43.554 C 68.92 43.554 68 43.227 67.313 42.574 C 66.633 41.921 66.293 41.077 66.293 40.044 C 66.293 38.837 66.767 37.904 67.713 37.244 C 68.667 36.577 70.003 36.244 71.723 36.244 L 73.223 36.244 L 73.223 35.844 C 73.223 34.697 72.487 34.124 71.013 34.124 C 70.633 34.124 70.16 34.177 69.593 34.284 C 69.027 34.384 68.477 34.527 67.943 34.714 L 67.193 32.504 C 67.907 32.237 68.65 32.031 69.423 31.884 C 70.203 31.737 70.91 31.664 71.543 31.664 C 74.79 31.664 76.413 32.981 76.413 35.614 L 76.413 39.984 Z M 71.203 41.174 C 71.583 41.174 71.963 41.067 72.343 40.854 C 72.73 40.634 73.023 40.337 73.223 39.964 L 73.223 38.134 L 72.403 38.134 C 70.61 38.134 69.713 38.694 69.713 39.814 C 69.713 40.247 69.843 40.584 70.103 40.824 C 70.363 41.057 70.73 41.174 71.203 41.174 ZM 84.085 41.174 C 84.659 41.174 85.112 41.087 85.445 40.914 C 85.772 40.741 85.935 40.477 85.935 40.124 C 85.935 39.877 85.869 39.674 85.735 39.514 C 85.602 39.361 85.355 39.211 84.995 39.064 C 84.629 38.917 84.062 38.741 83.295 38.534 C 82.175 38.241 81.319 37.831 80.725 37.304 C 80.139 36.777 79.845 36.054 79.845 35.134 C 79.845 34.107 80.269 33.274 81.115 32.634 C 81.962 31.987 83.149 31.664 84.675 31.664 C 86.442 31.664 87.949 32.121 89.195 33.034 L 87.865 34.984 C 86.845 34.351 85.819 34.034 84.785 34.034 C 84.239 34.034 83.835 34.104 83.575 34.244 C 83.315 34.384 83.185 34.604 83.185 34.904 C 83.185 35.097 83.252 35.261 83.385 35.394 C 83.519 35.527 83.772 35.664 84.145 35.804 C 84.512 35.944 85.069 36.117 85.815 36.324 C 86.609 36.551 87.262 36.797 87.775 37.064 C 88.289 37.331 88.685 37.687 88.965 38.134 C 89.245 38.581 89.385 39.154 89.385 39.854 C 89.385 40.641 89.145 41.314 88.665 41.874 C 88.192 42.434 87.555 42.854 86.755 43.134 C 85.955 43.414 85.072 43.554 84.105 43.554 C 83.072 43.554 82.135 43.407 81.295 43.114 C 80.455 42.814 79.742 42.401 79.155 41.874 L 80.815 40.004 C 81.822 40.784 82.912 41.174 84.085 41.174 ZM 95.528 27.274 L 95.528 33.154 C 96.468 32.161 97.558 31.664 98.798 31.664 C 99.778 31.664 100.534 31.954 101.068 32.534 C 101.601 33.114 101.868 33.937 101.868 35.004 L 101.868 43.194 L 98.548 43.194 L 98.548 35.924 C 98.548 35.257 98.471 34.791 98.318 34.524 C 98.164 34.257 97.884 34.124 97.478 34.124 C 97.144 34.124 96.818 34.237 96.498 34.464 C 96.184 34.697 95.861 35.037 95.528 35.484 L 95.528 43.194 L 92.208 43.194 L 92.208 27.614 L 95.528 27.274 ZM 108.12 33.174 C 108.466 32.701 108.89 32.331 109.39 32.064 C 109.883 31.797 110.41 31.664 110.97 31.664 C 112.356 31.664 113.39 32.181 114.07 33.214 C 114.75 34.254 115.09 35.711 115.09 37.584 C 115.09 38.751 114.916 39.781 114.57 40.674 C 114.216 41.567 113.703 42.271 113.03 42.784 C 112.356 43.297 111.553 43.554 110.62 43.554 C 110.06 43.554 109.54 43.434 109.06 43.194 C 108.586 42.954 108.19 42.617 107.87 42.184 L 107.74 43.194 L 104.8 43.194 L 104.8 27.614 L 108.12 27.254 L 108.12 33.174 Z M 109.76 41.134 C 111.033 41.134 111.67 39.964 111.67 37.624 C 111.67 36.324 111.523 35.417 111.23 34.904 C 110.936 34.384 110.5 34.124 109.92 34.124 C 109.24 34.124 108.64 34.557 108.12 35.424 L 108.12 40.124 C 108.553 40.797 109.1 41.134 109.76 41.134 ZM 122.222 31.664 C 123.915 31.664 125.242 32.201 126.202 33.274 C 127.162 34.341 127.642 35.777 127.642 37.584 C 127.642 39.464 127.165 40.927 126.212 41.974 C 125.259 43.027 123.929 43.554 122.222 43.554 C 120.515 43.554 119.185 43.031 118.232 41.984 C 117.279 40.944 116.802 39.484 116.802 37.604 C 116.802 36.417 117.015 35.381 117.442 34.494 C 117.869 33.601 118.492 32.907 119.312 32.414 C 120.132 31.914 121.102 31.664 122.222 31.664 Z M 122.222 34.124 C 121.535 34.124 121.032 34.401 120.712 34.954 C 120.392 35.507 120.232 36.391 120.232 37.604 C 120.232 38.837 120.392 39.731 120.712 40.284 C 121.032 40.837 121.535 41.114 122.222 41.114 C 122.909 41.114 123.412 40.834 123.732 40.274 C 124.052 39.714 124.212 38.817 124.212 37.584 C 124.212 36.384 124.052 35.507 123.732 34.954 C 123.412 34.401 122.909 34.124 122.222 34.124 ZM 139.374 39.984 C 139.374 40.391 139.431 40.691 139.544 40.884 C 139.651 41.077 139.838 41.224 140.104 41.324 L 139.414 43.514 C 138.741 43.441 138.181 43.287 137.734 43.054 C 137.288 42.827 136.938 42.487 136.684 42.034 C 136.264 42.527 135.731 42.904 135.084 43.164 C 134.444 43.424 133.761 43.554 133.034 43.554 C 131.881 43.554 130.961 43.227 130.274 42.574 C 129.594 41.921 129.254 41.077 129.254 40.044 C 129.254 38.837 129.728 37.904 130.674 37.244 C 131.628 36.577 132.964 36.244 134.684 36.244 L 136.184 36.244 L 136.184 35.844 C 136.184 34.697 135.448 34.124 133.974 34.124 C 133.594 34.124 133.121 34.177 132.554 34.284 C 131.988 34.384 131.438 34.527 130.904 34.714 L 130.154 32.504 C 130.868 32.237 131.611 32.031 132.384 31.884 C 133.164 31.737 133.871 31.664 134.504 31.664 C 137.751 31.664 139.374 32.981 139.374 35.614 L 139.374 39.984 Z M 134.164 41.174 C 134.544 41.174 134.924 41.067 135.304 40.854 C 135.691 40.634 135.984 40.337 136.184 39.964 L 136.184 38.134 L 135.364 38.134 C 133.571 38.134 132.674 38.694 132.674 39.814 C 132.674 40.247 132.804 40.584 133.064 40.824 C 133.324 41.057 133.691 41.174 134.164 41.174 ZM 151.086 31.704 C 151.753 31.704 152.366 31.817 152.926 32.044 L 152.316 36.704 L 150.216 36.704 L 150.216 34.644 C 149.603 34.757 149.06 35.094 148.586 35.654 C 148.106 36.214 147.733 36.921 147.466 37.774 L 147.466 40.964 L 149.676 40.964 L 149.676 43.194 L 142.686 43.194 L 142.686 40.964 L 144.156 40.964 L 144.156 34.244 L 142.686 34.244 L 142.686 32.044 L 146.696 32.044 L 147.276 34.544 C 147.683 33.591 148.196 32.881 148.816 32.414 C 149.43 31.941 150.186 31.704 151.086 31.704 ZM 161.509 27.254 L 164.829 27.614 L 164.829 43.194 L 161.889 43.194 L 161.719 41.974 C 161.385 42.454 160.959 42.837 160.439 43.124 C 159.919 43.411 159.319 43.554 158.639 43.554 C 157.292 43.554 156.272 43.021 155.579 41.954 C 154.885 40.894 154.539 39.437 154.539 37.584 C 154.539 36.437 154.722 35.417 155.089 34.524 C 155.449 33.624 155.965 32.924 156.639 32.424 C 157.312 31.917 158.095 31.664 158.989 31.664 C 159.995 31.664 160.835 32.014 161.509 32.714 L 161.509 27.254 Z M 159.869 34.104 C 159.269 34.104 158.802 34.387 158.469 34.954 C 158.129 35.521 157.959 36.404 157.959 37.604 C 157.959 38.897 158.109 39.804 158.409 40.324 C 158.715 40.851 159.142 41.114 159.689 41.114 C 160.389 41.114 160.995 40.687 161.509 39.834 L 161.509 35.024 C 161.275 34.717 161.029 34.487 160.769 34.334 C 160.509 34.181 160.209 34.104 159.869 34.104 Z" transform="matrix(1, 0, 0, 1, 0, 0)" style="fill: rgb(255, 138, 4); white-space: pre;"/>
  <path d="M 181.372 42.411 C 180.925 42.411 180.535 42.328 180.202 42.161 C 179.875 41.988 179.602 41.734 179.382 41.401 L 179.262 42.281 L 178.182 42.281 L 178.182 33.361 L 177.152 33.181 L 177.152 32.381 L 179.432 32.381 L 179.432 36.221 C 179.652 35.921 179.922 35.691 180.242 35.531 C 180.562 35.364 180.935 35.281 181.362 35.281 C 181.929 35.281 182.412 35.438 182.812 35.751 C 183.212 36.058 183.519 36.488 183.732 37.041 C 183.945 37.594 184.052 38.238 184.052 38.971 L 184.052 39.111 C 184.052 39.771 183.945 40.348 183.732 40.841 C 183.519 41.334 183.212 41.721 182.812 42.001 C 182.412 42.274 181.932 42.411 181.372 42.411 Z M 181.052 41.401 C 181.639 41.401 182.075 41.191 182.362 40.771 C 182.649 40.351 182.792 39.798 182.792 39.111 L 182.792 38.971 C 182.792 38.444 182.729 37.981 182.602 37.581 C 182.475 37.181 182.282 36.868 182.022 36.641 C 181.769 36.414 181.442 36.301 181.042 36.301 C 180.655 36.301 180.332 36.394 180.072 36.581 C 179.805 36.768 179.592 37.018 179.432 37.331 L 179.432 40.361 C 179.592 40.681 179.805 40.934 180.072 41.121 C 180.339 41.308 180.665 41.401 181.052 41.401 ZM 186.345 45.051 C 186.252 45.051 186.125 45.041 185.965 45.021 C 185.812 44.994 185.692 44.971 185.605 44.951 L 185.735 43.971 C 185.802 43.978 185.899 43.984 186.025 43.991 C 186.152 43.998 186.239 44.001 186.285 44.001 C 186.552 44.001 186.769 43.901 186.935 43.701 C 187.109 43.494 187.265 43.214 187.405 42.861 L 187.705 42.141 L 185.275 36.321 L 184.535 36.221 L 184.535 35.411 L 187.415 35.411 L 187.415 36.221 L 186.585 36.341 L 187.925 39.781 L 188.255 40.671 L 188.285 40.671 L 189.875 36.341 L 188.995 36.221 L 188.995 35.411 L 191.825 35.411 L 191.825 36.221 L 191.115 36.321 L 188.405 43.331 C 188.279 43.664 188.125 43.961 187.945 44.221 C 187.765 44.481 187.545 44.684 187.285 44.831 C 187.025 44.978 186.712 45.051 186.345 45.051 ZM 198.761 44.921 L 195.451 44.921 L 195.451 44.111 L 196.421 43.941 L 196.421 36.401 L 195.391 36.221 L 195.391 35.411 L 197.491 35.411 L 197.611 36.251 C 197.838 35.938 198.114 35.698 198.441 35.531 C 198.768 35.364 199.148 35.281 199.581 35.281 C 200.148 35.281 200.634 35.438 201.041 35.751 C 201.441 36.058 201.748 36.484 201.961 37.031 C 202.168 37.584 202.271 38.231 202.271 38.971 L 202.271 39.111 C 202.271 39.771 202.164 40.348 201.951 40.841 C 201.738 41.334 201.434 41.721 201.041 42.001 C 200.641 42.274 200.161 42.411 199.601 42.411 C 199.181 42.411 198.811 42.341 198.491 42.201 C 198.171 42.061 197.898 41.851 197.671 41.571 L 197.671 43.941 L 198.761 44.111 L 198.761 44.921 Z M 199.211 41.441 C 199.804 41.441 200.254 41.224 200.561 40.791 C 200.868 40.358 201.021 39.798 201.021 39.111 L 201.021 38.971 C 201.021 38.451 200.951 37.991 200.811 37.591 C 200.678 37.191 200.478 36.874 200.211 36.641 C 199.938 36.414 199.601 36.301 199.201 36.301 C 198.848 36.301 198.544 36.381 198.291 36.541 C 198.038 36.701 197.831 36.921 197.671 37.201 L 197.671 40.551 C 197.831 40.831 198.034 41.048 198.281 41.201 C 198.534 41.361 198.844 41.441 199.211 41.441 ZM 206.471 42.411 C 205.564 42.411 204.848 42.098 204.321 41.471 C 203.794 40.838 203.531 39.934 203.531 38.761 L 203.531 36.571 C 203.531 35.391 203.794 34.484 204.321 33.851 C 204.841 33.218 205.554 32.901 206.461 32.901 C 207.374 32.901 208.094 33.218 208.621 33.851 C 209.148 34.484 209.411 35.391 209.411 36.571 L 209.411 38.761 C 209.411 39.941 209.151 40.844 208.631 41.471 C 208.104 42.098 207.384 42.411 206.471 42.411 Z M 206.471 41.441 C 207.024 41.441 207.444 41.238 207.731 40.831 C 208.018 40.424 208.161 39.818 208.161 39.011 L 208.161 36.301 C 208.161 35.501 208.018 34.898 207.731 34.491 C 207.438 34.091 207.014 33.891 206.461 33.891 C 205.914 33.891 205.498 34.091 205.211 34.491 C 204.924 34.898 204.781 35.501 204.781 36.301 L 204.781 39.011 C 204.781 39.811 204.928 40.414 205.221 40.821 C 205.508 41.234 205.924 41.441 206.471 41.441 ZM 213.057 42.391 C 212.55 42.391 212.15 42.241 211.857 41.941 C 211.557 41.641 211.407 41.164 211.407 40.511 L 211.407 36.341 L 210.317 36.341 L 210.317 35.411 L 211.407 35.411 L 211.407 33.761 L 212.657 33.761 L 212.657 35.411 L 214.147 35.411 L 214.147 36.341 L 212.657 36.341 L 212.657 40.511 C 212.657 40.838 212.724 41.081 212.857 41.241 C 212.984 41.394 213.157 41.471 213.377 41.471 C 213.524 41.471 213.69 41.458 213.877 41.431 C 214.057 41.404 214.197 41.381 214.297 41.361 L 214.467 42.181 C 214.287 42.234 214.064 42.281 213.797 42.321 C 213.537 42.368 213.29 42.391 213.057 42.391 ZM 218.426 42.281 L 215.106 42.281 L 215.106 41.481 L 216.146 41.301 L 216.146 33.361 L 215.106 33.181 L 215.106 32.381 L 217.396 32.381 L 217.396 36.331 C 217.629 35.998 217.919 35.741 218.266 35.561 C 218.606 35.374 218.986 35.281 219.406 35.281 C 220.139 35.281 220.709 35.504 221.116 35.951 C 221.523 36.391 221.726 37.068 221.726 37.981 L 221.726 41.301 L 222.766 41.481 L 222.766 42.281 L 219.446 42.281 L 219.446 41.481 L 220.476 41.301 L 220.476 37.961 C 220.476 37.394 220.356 36.978 220.116 36.711 C 219.869 36.438 219.506 36.301 219.026 36.301 C 218.679 36.301 218.366 36.381 218.086 36.541 C 217.806 36.708 217.576 36.931 217.396 37.211 L 217.396 41.301 L 218.426 41.481 L 218.426 42.281 ZM 226.884 42.281 L 223.564 42.281 L 223.564 41.481 L 224.594 41.301 L 224.594 36.401 L 223.564 36.221 L 223.564 35.411 L 225.844 35.411 L 225.844 41.301 L 226.884 41.481 L 226.884 42.281 Z M 225.844 33.721 L 224.534 33.721 L 224.534 32.381 L 225.844 32.381 L 225.844 33.721 Z" transform="matrix(1, 0, 0, 1, 0, 0)" style="fill: rgb(42, 80, 111); white-space: pre;"/>
</svg>